HIERARCHY
ROOT Pelvis
{
	OFFSET 0.000000 0.000000 0.000000
	CHANNELS 6 Xposition Yposition Zposition Xrotation Yrotation Zrotation
	JOINT LeftUpLeg_virtual
	{
		OFFSET 0.000000 0.000000 0.000000
		CHANNELS 3 Xrotation Yrotation Zrotation
		JOINT LeftUpLeg
		{
			OFFSET 18.735201 -5.666702 -4.541200
			CHANNELS 3 Xrotation Yrotation Zrotation
			JOINT LeftLeg
			{
				OFFSET -0.021200 -31.938179 0.493100
				CHANNELS 3 Xrotation Yrotation Zrotation
				JOINT LeftFoot
				{
					OFFSET 0.021200 -31.938179 -4.336299
					CHANNELS 3 Xrotation Yrotation Zrotation
					JOINT LeftToeBase
					{
						OFFSET 0.943001 -26.722000 15.023500
						CHANNELS 3 Xrotation Yrotation Zrotation
						End Site
						{
							OFFSET 0 0 0
						}
					}
				}
			}
		}
	}
	JOINT RightUpLeg_virtual
	{
		OFFSET 0.000000 0.000000 0.000000
		CHANNELS 3 Xrotation Yrotation Zrotation
		JOINT RightUpLeg
		{
			OFFSET -18.735201 -5.666702 -4.541200
			CHANNELS 3 Xrotation Yrotation Zrotation
			JOINT RightLeg
			{
				OFFSET 0.018946 -31.938133 0.493100
				CHANNELS 3 Xrotation Yrotation Zrotation
				JOINT RightFoot
				{
					OFFSET -0.018946 -31.938126 -4.336299
					CHANNELS 3 Xrotation Yrotation Zrotation
					JOINT RightToeBase
					{
						OFFSET -0.943001 -26.722004 15.023500
						CHANNELS 3 Xrotation Yrotation Zrotation
						End Site
						{
							OFFSET 0 0 0
						}
					}
				}
			}
		}
	}
	JOINT Hips_virtual
	{
		OFFSET 0.000000 0.000000 0.000000
		CHANNELS 3 Xrotation Yrotation Zrotation
		JOINT Hips
		{
			OFFSET -0.000000 -0.000000 -0.000000
			CHANNELS 3 Xrotation Yrotation Zrotation
			JOINT Spine
			{
				OFFSET 0.000000 10.199997 -0.299500
				CHANNELS 3 Xrotation Yrotation Zrotation
				JOINT Spine1
				{
					OFFSET 0.000000 11.900002 -1.516600
					CHANNELS 3 Xrotation Yrotation Zrotation
					JOINT Spine2
					{
						OFFSET 0.000000 13.600006 -2.842500
						CHANNELS 3 Xrotation Yrotation Zrotation
						JOINT Neck_virtual
						{
							OFFSET 0.000000 0.000000 0.000000
							CHANNELS 3 Xrotation Yrotation Zrotation
							JOINT Neck
							{
								OFFSET 0.000000 9.624100 -2.890100
								CHANNELS 3 Xrotation Yrotation Zrotation
								JOINT Head
								{
									OFFSET 0.000000 14.068802 -1.351900
									CHANNELS 3 Xrotation Yrotation Zrotation
									End Site
									{
										OFFSET 0 0 0
									}
								}
							}
						}
						JOINT LeftShoulder_virtual
						{
							OFFSET 0.000000 0.000000 0.000000
							CHANNELS 3 Xrotation Yrotation Zrotation
							JOINT LeftShoulder
							{
								OFFSET 15.263000 10.923401 -0.547700
								CHANNELS 3 Xrotation Yrotation Zrotation
								JOINT LeftArm
								{
									OFFSET 25.438599 -2.830597 -13.032500
									CHANNELS 3 Xrotation Yrotation Zrotation
									JOINT LeftForeArm
									{
										OFFSET 29.960503 0.000000 0.000000
										CHANNELS 3 Xrotation Yrotation Zrotation
										JOINT LeftHand
										{
											OFFSET 27.849251 0.000000 0.000000
											CHANNELS 3 Xrotation Yrotation Zrotation
											End Site
											{
												OFFSET 0 0 0
											}
										}
									}
								}
							}
						}
						JOINT RightShoulder_virtual
						{
							OFFSET 0.000000 0.000000 0.000000
							CHANNELS 3 Xrotation Yrotation Zrotation
							JOINT RightShoulder
							{
								OFFSET -15.263000 10.923401 -0.547700
								CHANNELS 3 Xrotation Yrotation Zrotation
								JOINT RightArm
								{
									OFFSET -25.438599 -2.830597 -13.032500
									CHANNELS 3 Xrotation Yrotation Zrotation
									JOINT RightForeArm
									{
										OFFSET -29.960503 0.000000 0.000000
										CHANNELS 3 Xrotation Yrotation Zrotation
										JOINT RightHand
										{
											OFFSET -27.849251 0.000000 0.000000
											CHANNELS 3 Xrotation Yrotation Zrotation
											End Site
											{
												OFFSET 0 0 0
											}
										}
									}
								}
							}
						}
					}
				}
			}
		}
	}
}
MOTION
Frames: 4
Frame Time: 0.03333333
1.585472 89.019730 -4.073635 0.000000 0.000000 0.000000 -178.376223 24.213714 -178.136825 -26.909282 -8.348146 12.987156 27.875798 -0.959023 -1.107890 0.125870 -2.768197 -16.824568 0.000000 0.000000 0.000000 -178.376223 24.213714 -178.136825 -18.977973 -11.345320 -22.692571 44.800092 2.117219 1.788153 -22.724019 -9.831863 12.618356 0.000000 0.000000 0.000000 -178.376223 24.213714 -178.136825 0.000000 -0.000001 0.000000 5.547813 -0.029679 -0.187511 11.095622 0.009769 -0.734627 0.000000 0.000000 0.000000 11.095630 0.009765 -0.734625 -2.094171 -0.354144 -0.652391 0.000000 0.000000 0.000000 11.095630 0.009765 -0.734625 9.458515 -6.444348 -14.996469 -9.678078 10.609533 -35.777204 0.014658 -55.260984 0.179001 0.000000 0.000000 0.000000 11.095630 0.009765 -0.734625 -3.413065 0.044908 -0.357072 -8.509093 -11.385597 60.673581 -0.093511 56.136826 -0.118096 0.000000 0.000000 0.000000 
1.662197 88.631973 -3.948090 0.000000 0.000000 0.000000 -179.695898 26.554874 -177.948489 -28.885266 -6.070480 14.654094 30.659609 -1.099751 -1.218563 -1.714671 -3.346065 -16.696848 0.000000 0.000000 0.000000 -179.695898 26.554874 -177.948489 -21.514449 -9.078340 -21.803072 46.089082 2.077248 1.824730 -22.466884 -9.364118 12.441202 0.000000 0.000000 0.000000 -179.695898 26.554874 -177.948489 0.000000 -0.000001 0.000000 5.532431 -0.105200 -0.306325 11.063668 -0.166390 -0.951348 0.000000 0.000000 0.000000 11.063668 -0.166376 -0.951353 -2.262709 -0.510585 -0.589147 0.000000 0.000000 0.000000 11.063668 -0.166376 -0.951353 9.287392 -6.480147 -13.016980 -7.148102 10.286331 -34.868136 0.002826 -53.374397 0.177103 0.000000 0.000000 0.000000 11.063668 -0.166376 -0.951353 -3.131420 0.557777 -0.519412 -7.620064 -7.972472 58.297290 -0.094659 53.382836 -0.125884 0.000000 0.000000 0.000000 
1.854293 87.573601 -3.625969 0.000000 0.000000 0.000000 176.815279 32.465983 -176.985474 -32.924329 -3.127988 18.296175 37.108397 -1.468898 -1.476365 -6.206877 -1.955941 -16.991433 0.000000 0.000000 0.000000 176.815279 32.465983 -176.985474 -28.115731 -4.148115 -19.547098 49.051509 1.979731 1.908213 -21.575640 -7.538560 12.140043 0.000000 0.000000 0.000000 176.815279 32.465983 -176.985474 0.000000 0.000000 0.000000 5.500702 -0.171650 -0.503132 10.998608 -0.359422 -1.282566 0.000000 0.000000 0.000000 10.998613 -0.359415 -1.282568 -2.357857 -0.653616 -0.541351 0.000000 0.000000 0.000000 10.998613 -0.359415 -1.282568 8.482504 -6.666479 -10.834774 -0.632538 9.485282 -32.710975 -0.030045 -48.869642 0.157709 0.000000 0.000000 0.000000 10.998613 -0.359415 -1.282568 -2.413236 1.858728 -0.950986 -5.525518 0.166516 52.613774 -0.105290 46.386478 -0.129174 0.000000 0.000000 0.000000 
2.108696 85.994507 -3.218430 0.000000 0.000000 0.000000 171.628269 40.377114 -174.431789 -36.853423 -1.079867 22.569747 44.760139 -2.006360 -1.785551 -11.998763 2.095505 -17.808569 0.000000 0.000000 0.000000 171.628269 40.377114 -174.431789 -37.346863 0.408301 -16.790623 52.446007 1.846209 2.002847 -19.932828 -3.224133 11.924250 0.000000 0.000000 0.000000 171.628269 40.377114 -174.431789 0.000001 -0.000001 0.000000 5.475451 -0.225409 -0.749958 10.946322 -0.549788 -1.653778 0.000000 0.000000 0.000000 10.946323 -0.549781 -1.653778 -2.425484 -0.794346 -0.497735 0.000000 0.000000 0.000000 10.946323 -0.549781 -1.653778 7.303186 -6.929792 -8.542117 8.264773 8.477098 -30.187459 -0.064719 -43.516190 0.131133 0.000000 0.000000 0.000000 10.946323 -0.549781 -1.653778 -1.448412 3.591149 -1.569065 -3.068862 9.890805 45.806046 -0.120229 37.030062 -0.109104 0.000000 0.000000 0.000000 
